G04 #@! TF.FileFunction,Copper,L2,Bot,Signal*
%FSLAX46Y46*%
G04 Gerber Fmt 4.6, Leading zero omitted, Abs format (unit mm)*
G04 Created by KiCad (PCBNEW (2015-02-18 BZR 5431)-product) date Fri Feb 20 23:15:30 2015*
%MOMM*%
G01*
G04 APERTURE LIST*
%ADD10C,0.100000*%
%ADD11R,2.032000X1.727200*%
%ADD12O,2.032000X1.727200*%
%ADD13C,0.889000*%
%ADD14C,0.254000*%
G04 APERTURE END LIST*
D10*
D11*
X100584000Y-96329500D03*
D12*
X100584000Y-98869500D03*
X100584000Y-101409500D03*
X100584000Y-103949500D03*
X100584000Y-106489500D03*
X100584000Y-109029500D03*
X100584000Y-111569500D03*
X100584000Y-114109500D03*
X100584000Y-116649500D03*
X100584000Y-119189500D03*
X100584000Y-121729500D03*
X100584000Y-124269500D03*
X100584000Y-126809500D03*
X100584000Y-129349500D03*
X100584000Y-131889500D03*
X100584000Y-134429500D03*
X100584000Y-136969500D03*
X100584000Y-139509500D03*
X100584000Y-142049500D03*
D11*
X113284000Y-142049500D03*
D12*
X113284000Y-139509500D03*
X113284000Y-136969500D03*
X113284000Y-134429500D03*
X113284000Y-131889500D03*
X113284000Y-129349500D03*
X113284000Y-126809500D03*
X113284000Y-124269500D03*
X113284000Y-121729500D03*
X113284000Y-119189500D03*
X113284000Y-116649500D03*
X113284000Y-114109500D03*
X113284000Y-111569500D03*
X113284000Y-109029500D03*
X113284000Y-106489500D03*
X113284000Y-103949500D03*
X113284000Y-101409500D03*
X113284000Y-98869500D03*
X113284000Y-96329500D03*
D13*
X105981500Y-110998000D03*
X106316914Y-112450560D03*
X106045000Y-114004510D03*
X106045000Y-115147513D03*
X105900139Y-116281298D03*
X106281150Y-117404008D03*
X107106660Y-118309068D03*
X105791000Y-121221500D03*
X105918000Y-122745500D03*
X106870500Y-123634500D03*
X106874769Y-122120163D03*
X107625821Y-120803490D03*
X107573396Y-119638396D03*
X108077000Y-116967000D03*
X107224237Y-115765919D03*
X107066109Y-114633908D03*
X107075514Y-113404742D03*
X106386941Y-109791495D03*
D14*
X105537000Y-110109000D02*
X105981500Y-110553500D01*
X105981500Y-110553500D02*
X105981500Y-110998000D01*
X105537000Y-102552500D02*
X105537000Y-110109000D01*
X100584000Y-98869500D02*
X101854000Y-98869500D01*
X101854000Y-98869500D02*
X105537000Y-102552500D01*
X106156758Y-112395000D02*
X106261354Y-112395000D01*
X106261354Y-112395000D02*
X106316914Y-112450560D01*
X100584000Y-101409500D02*
X100736400Y-101409500D01*
X105028990Y-111267232D02*
X106156758Y-112395000D01*
X100736400Y-101409500D02*
X105028990Y-105702090D01*
X105028990Y-105702090D02*
X105028990Y-111267232D01*
X106045000Y-113855500D02*
X106045000Y-114004510D01*
X106045000Y-113400388D02*
X106045000Y-113855500D01*
X104330500Y-106426000D02*
X104330500Y-111685888D01*
X104330500Y-111685888D02*
X106045000Y-113400388D01*
X100584000Y-103949500D02*
X101854000Y-103949500D01*
X101854000Y-103949500D02*
X104330500Y-106426000D01*
X106045000Y-115062000D02*
X106045000Y-115147513D01*
X105880748Y-115062000D02*
X106045000Y-115062000D01*
X103822491Y-111896313D02*
X105219499Y-113293321D01*
X105219499Y-114400751D02*
X105880748Y-115062000D01*
X105219499Y-113293321D02*
X105219499Y-114400751D01*
X100584000Y-106489500D02*
X101854000Y-106489500D01*
X101854000Y-106489500D02*
X103822490Y-108457990D01*
X103822490Y-108457990D02*
X103822491Y-111896313D01*
X105514986Y-115973014D02*
X105823270Y-116281298D01*
X105823270Y-116281298D02*
X105900139Y-116281298D01*
X102298500Y-116967000D02*
X103292486Y-115973014D01*
X103292486Y-115973014D02*
X105514986Y-115973014D01*
X102298500Y-123825000D02*
X102298500Y-116967000D01*
X100584000Y-124269500D02*
X101854000Y-124269500D01*
X101854000Y-124269500D02*
X102298500Y-123825000D01*
X106057799Y-117106799D02*
X106281150Y-117330150D01*
X106281150Y-117330150D02*
X106281150Y-117404008D01*
X102997000Y-117602000D02*
X103492201Y-117106799D01*
X103492201Y-117106799D02*
X106057799Y-117106799D01*
X102997000Y-125666500D02*
X102997000Y-117602000D01*
X100584000Y-126809500D02*
X101854000Y-126809500D01*
X101854000Y-126809500D02*
X102997000Y-125666500D01*
X106616500Y-118237000D02*
X106688568Y-118309068D01*
X106688568Y-118309068D02*
X107106660Y-118309068D01*
X104013000Y-118237000D02*
X106616500Y-118237000D01*
X103505010Y-118744990D02*
X104013000Y-118237000D01*
X103505010Y-125876924D02*
X103505010Y-118744990D01*
X100584000Y-129349500D02*
X101854000Y-129349500D01*
X101854000Y-129349500D02*
X103505010Y-127698490D01*
X103505010Y-127698490D02*
X103505010Y-125876924D01*
X100584000Y-136969500D02*
X101854000Y-136969500D01*
X104140000Y-121729500D02*
X104711500Y-121158000D01*
X101854000Y-136969500D02*
X104140000Y-134683500D01*
X104711500Y-121158000D02*
X104775000Y-121221500D01*
X104775000Y-121221500D02*
X105791000Y-121221500D01*
X104140000Y-134683500D02*
X104140000Y-121729500D01*
X105981500Y-122872500D02*
X105981500Y-122809000D01*
X105981500Y-122809000D02*
X105918000Y-122745500D01*
X105981500Y-135382000D02*
X105981500Y-122872500D01*
X100584000Y-139509500D02*
X101854000Y-139509500D01*
X101854000Y-139509500D02*
X105981500Y-135382000D01*
X106807000Y-124015500D02*
X106807000Y-123698000D01*
X106807000Y-123698000D02*
X106870500Y-123634500D01*
X106807000Y-131762500D02*
X106807000Y-124015500D01*
X113284000Y-136969500D02*
X112014000Y-136969500D01*
X112014000Y-136969500D02*
X106807000Y-131762500D01*
X106695242Y-122237500D02*
X106757432Y-122237500D01*
X106757432Y-122237500D02*
X106874769Y-122120163D01*
X113284000Y-134429500D02*
X113131600Y-134429500D01*
X113131600Y-134429500D02*
X107696000Y-128993900D01*
X107696000Y-128993900D02*
X107696001Y-123238259D01*
X107696001Y-123238259D02*
X106695242Y-122237500D01*
X107315000Y-121285000D02*
X107625821Y-120974179D01*
X107625821Y-120974179D02*
X107625821Y-120803490D01*
X108204010Y-122174010D02*
X107315000Y-121285000D01*
X113284000Y-131889500D02*
X112014000Y-131889500D01*
X112014000Y-131889500D02*
X108204010Y-128079509D01*
X108204010Y-128079509D02*
X108204010Y-122174010D01*
X107251500Y-119888000D02*
X107323792Y-119888000D01*
X107323792Y-119888000D02*
X107573396Y-119638396D01*
X107932073Y-119888000D02*
X107251500Y-119888000D01*
X108712020Y-126047520D02*
X108712020Y-120667947D01*
X108712020Y-120667947D02*
X107932073Y-119888000D01*
X113284000Y-129349500D02*
X112014000Y-129349500D01*
X112014000Y-129349500D02*
X108712020Y-126047520D01*
X108204000Y-116967000D02*
X108077000Y-116967000D01*
X109220030Y-117983030D02*
X108204000Y-116967000D01*
X109220030Y-118808530D02*
X109220030Y-117983030D01*
X113284000Y-126809500D02*
X112014000Y-126809500D01*
X112014000Y-126809500D02*
X109220030Y-124015530D01*
X109220030Y-124015530D02*
X109220030Y-118808530D01*
X107188000Y-115506500D02*
X107188000Y-115729682D01*
X107188000Y-115729682D02*
X107224237Y-115765919D01*
X107415259Y-115506500D02*
X107188000Y-115506500D01*
X113284000Y-106489500D02*
X112014000Y-106489500D01*
X108409025Y-110094475D02*
X108409025Y-114512734D01*
X112014000Y-106489500D02*
X108409025Y-110094475D01*
X108409025Y-114512734D02*
X107415259Y-115506500D01*
X113284000Y-103949500D02*
X112014000Y-103949500D01*
X112014000Y-103949500D02*
X107901015Y-108062485D01*
X107901015Y-113800983D02*
X107084498Y-114617500D01*
X107901015Y-108062485D02*
X107901015Y-113800983D01*
X107084498Y-114617500D02*
X107049701Y-114617500D01*
X107049701Y-114617500D02*
X107066109Y-114633908D01*
X106807001Y-111378999D02*
X107142415Y-111714413D01*
X107142415Y-111714413D02*
X107142415Y-113337841D01*
X107142415Y-113337841D02*
X107075514Y-113404742D01*
X107212442Y-110719558D02*
X106807001Y-111124999D01*
X106807001Y-111124999D02*
X106807001Y-111378999D01*
X110807500Y-101409500D02*
X107212442Y-105004558D01*
X107212442Y-105004558D02*
X107212442Y-110719558D01*
X113284000Y-101409500D02*
X110807500Y-101409500D01*
X106235500Y-109855000D02*
X106323436Y-109855000D01*
X106323436Y-109855000D02*
X106386941Y-109791495D01*
X106235500Y-104648000D02*
X106235500Y-109855000D01*
X113284000Y-98869500D02*
X112014000Y-98869500D01*
X112014000Y-98869500D02*
X106235500Y-104648000D01*
M02*
