M48
INCH,TZ
T1C0.025
T2C0.040
%
G90
G05
T1
X40985Y-42390
X41295Y-49900
X41310Y-41900
X41317Y-41410
X41317Y-51010
X42400Y-48430
X42470Y-49110
X42510Y-44590
X42588Y-45033
X42632Y-45481
X43110Y-48920
X43578Y-44980
X43582Y-45554
X43590Y-44530
X43670Y-47720
X43790Y-49120
X44880Y-41410
X44880Y-42410
X44880Y-49840
X44880Y-50890
X44885Y-41865
X45580Y-51140
T2
X39600Y-37925
X39600Y-38925
X39600Y-39925
X39600Y-40925
X39600Y-41925
X39600Y-42925
X39600Y-43925
X39600Y-44925
X39600Y-45925
X39600Y-46925
X39600Y-47925
X39600Y-48925
X39600Y-49925
X39600Y-50925
X39600Y-51925
X39600Y-52925
X39600Y-53925
X39600Y-54925
X39600Y-55925
X46600Y-37925
X46600Y-38925
X46600Y-39925
X46600Y-40925
X46600Y-41925
X46600Y-42925
X46600Y-43925
X46600Y-44925
X46600Y-45925
X46600Y-46925
X46600Y-47925
X46600Y-48925
X46600Y-49925
X46600Y-50925
X46600Y-51925
X46600Y-52925
X46600Y-53925
X46600Y-54925
X46600Y-55925
T0
M30
