M48
INCH,TZ
T1C0.025
T2C0.040
%
G90
G05
T1
X41650Y-47725
X41693Y-45780
X41700Y-48325
X41725Y-43700
X41750Y-44884
X41750Y-45334
X41843Y-46222
X41857Y-44272
X41885Y-43225
X42075Y-48675
X42077Y-48079
X42152Y-45131
X42156Y-44648
X42168Y-46578
X42214Y-45577
X42352Y-47102
X42372Y-47560
X42550Y-46050
T2
X39600Y-37925
X39600Y-38925
X39600Y-39925
X39600Y-40925
X39600Y-41925
X39600Y-42925
X39600Y-43925
X39600Y-44925
X39600Y-45925
X39600Y-46925
X39600Y-47925
X39600Y-48925
X39600Y-49925
X39600Y-50925
X39600Y-51925
X39600Y-52925
X39600Y-53925
X39600Y-54925
X39600Y-55925
X44600Y-37925
X44600Y-38925
X44600Y-39925
X44600Y-40925
X44600Y-41925
X44600Y-42925
X44600Y-43925
X44600Y-44925
X44600Y-45925
X44600Y-46925
X44600Y-47925
X44600Y-48925
X44600Y-49925
X44600Y-50925
X44600Y-51925
X44600Y-52925
X44600Y-53925
X44600Y-54925
X44600Y-55925
T0
M30
