G04 #@! TF.FileFunction,Soldermask,Top*
%FSLAX46Y46*%
G04 Gerber Fmt 4.6, Leading zero omitted, Abs format (unit mm)*
G04 Created by KiCad (PCBNEW (2015-02-18 BZR 5431)-product) date Sat Mar 14 17:37:27 2015*
%MOMM*%
G01*
G04 APERTURE LIST*
%ADD10C,0.100000*%
%ADD11R,2.032000X1.727200*%
%ADD12O,2.032000X1.727200*%
%ADD13R,1.800000X0.300000*%
G04 APERTURE END LIST*
D10*
D11*
X118364000Y-142049500D03*
D12*
X118364000Y-139509500D03*
X118364000Y-136969500D03*
X118364000Y-134429500D03*
X118364000Y-131889500D03*
X118364000Y-129349500D03*
X118364000Y-126809500D03*
X118364000Y-124269500D03*
X118364000Y-121729500D03*
X118364000Y-119189500D03*
X118364000Y-116649500D03*
X118364000Y-114109500D03*
X118364000Y-111569500D03*
X118364000Y-109029500D03*
X118364000Y-106489500D03*
X118364000Y-103949500D03*
X118364000Y-101409500D03*
X118364000Y-98869500D03*
X118364000Y-96329500D03*
D11*
X100584000Y-96329500D03*
D12*
X100584000Y-98869500D03*
X100584000Y-101409500D03*
X100584000Y-103949500D03*
X100584000Y-106489500D03*
X100584000Y-109029500D03*
X100584000Y-111569500D03*
X100584000Y-114109500D03*
X100584000Y-116649500D03*
X100584000Y-119189500D03*
X100584000Y-121729500D03*
X100584000Y-124269500D03*
X100584000Y-126809500D03*
X100584000Y-129349500D03*
X100584000Y-131889500D03*
X100584000Y-134429500D03*
X100584000Y-136969500D03*
X100584000Y-139509500D03*
X100584000Y-142049500D03*
D13*
X105770000Y-113355000D03*
X105770000Y-114005000D03*
X105770000Y-114655000D03*
X105770000Y-115305000D03*
X105770000Y-115955000D03*
X105770000Y-116605000D03*
X105770000Y-117255000D03*
X105770000Y-117905000D03*
X105770000Y-118555000D03*
X105770000Y-119205000D03*
X105770000Y-119855000D03*
X105770000Y-120505000D03*
X105770000Y-121155000D03*
X105770000Y-121805000D03*
X105770000Y-122455000D03*
X105770000Y-123105000D03*
X105770000Y-123755000D03*
X105770000Y-124405000D03*
X105770000Y-125055000D03*
X113170000Y-125055000D03*
X113170000Y-124405000D03*
X113170000Y-123755000D03*
X113170000Y-123105000D03*
X113170000Y-122455000D03*
X113170000Y-121805000D03*
X113170000Y-121155000D03*
X113170000Y-120505000D03*
X113170000Y-119855000D03*
X113170000Y-119205000D03*
X113170000Y-118555000D03*
X113170000Y-117905000D03*
X113170000Y-117255000D03*
X113170000Y-116605000D03*
X113170000Y-115955000D03*
X113170000Y-115305000D03*
X113170000Y-114655000D03*
X113170000Y-114005000D03*
X113170000Y-113355000D03*
M02*
